{"title":"Screw My Wife Please - Sateen 3D(Anaglyph) DVDRip","uid":6264227,"size":367024128,"categoryP":"porn","categoryS":"movie_clips","magnet":"?xt=urn:btih:6d47a32eb5c147640a75964ab5d9c51dbfdf5ffb&amp;dn=Screw+My+Wife+Please+-+Sateen+3D%28Anaglyph%29+DVDRip&amp;tr=udp%3A%2F%2Ftracker.openbittorrent.com%3A80&amp;tr=udp%3A%2F%2Fopen.demonii.com%3A1337&amp;tr=udp%3A%2F%2Ftracker.coppersurfer.tk%3A6969&amp;tr=udp%3A%2F%2Fexodus.desync.com%3A6969","seeders":1,"leechers":0,"uploader":null,"files":1,"time":1300855922,"description":"SCREENSHOTS:\n &lt;a href=&quot;\nhttp://lnk.co/GYERP&quot; rel=&quot;nofollow&quot; target=&quot;_NEW&quot;&gt;\nhttp://lnk.co/GYERP&lt;/a&gt;\n\nVideo\nID                               : 0\nFormat                           : MPEG-4 Visual\nFormat profile                   : Advanced Simple@L5\nFormat settings, BVOP            : 1\nFormat settings, QPel            : No\nFormat settings, GMC             : No warppoints\nFormat settings, Matrix          : Custom\nCodec ID                         : XVID\nCodec ID/Hint                    : XviD\nDuration                         : 15mn 43s\nBit rate                         : 2 913 Kbps\nWidth                            : 720 pixels\nHeight                           : 416 pixels\nDisplay aspect ratio             : 16:9\nFrame rate                       : 29.970 fps\nColor space                      : YUV\nChroma subsampling               : 4:2:0\nBit depth                        : 8 bits\nScan type                        : Progressive\nCompression mode                 : Lossy\nBits/(Pixel*Frame)               : 0.325\nStream size                      : 328 MiB (94%)\n\nAudio\nID                               : 1\nFormat                           : AC-3\nFormat/Info                      : Audio Coding 3\nMode extension                   : CM (complete main)\nCodec ID                         : 2000\nDuration                         : 15mn 43s\nBit rate mode                    : Constant\nBit rate                         : 192 Kbps\nChannel(s)                       : 2 channels\nChannel positions                : Front: L R\nSampling rate                    : 48.0 KHz\nBit depth                        : 16 bits\nCompression mode                 : Lossy\nDelay relative to video          : 96ms\nStream size                      : 21.6 MiB (6%)\nLanguage                         : English\n\nencoded for iPod,PSP,Zune and other handheld devices...:)","torrent":{"xt":"urn:btih:6d47a32eb5c147640a75964ab5d9c51dbfdf5ffb","amp;dn":"Screw+My+Wife+Please+-+Sateen+3D%28Anaglyph%29+DVDRip","amp;tr":["udp%3A%2F%2Ftracker.openbittorrent.com%3A80","udp%3A%2F%2Fopen.demonii.com%3A1337","udp%3A%2F%2Ftracker.coppersurfer.tk%3A6969","udp%3A%2F%2Fexodus.desync.com%3A6969"],"infoHash":"6d47a32eb5c147640a75964ab5d9c51dbfdf5ffb","infoHashBuffer":{"type":"Buffer","data":[109,71,163,46,181,193,71,100,10,117,150,74,181,217,197,29,191,223,95,251]},"announce":[],"urlList":[]}}